<svg xmlns="http://www.w3.org/2000/svg" viewBox="0 0 200 160" fill="none">
  <rect x="25" y="35" width="45" height="80" rx="6" fill="#f1f5f9" stroke="#cbd5e1" stroke-width="1.5"/>
  <rect x="78" y="35" width="45" height="80" rx="6" fill="#f1f5f9" stroke="#cbd5e1" stroke-width="1.5"/>
  <rect x="130" y="35" width="45" height="80" rx="6" fill="#f1f5f9" stroke="#cbd5e1" stroke-width="1.5"/>
  <rect x="32" y="43" width="31" height="4" rx="2" fill="#94a3b8"/>
  <rect x="85" y="43" width="31" height="4" rx="2" fill="#94a3b8"/>
  <rect x="137" y="43" width="31" height="4" rx="2" fill="#94a3b8"/>
  <rect x="30" y="55" width="35" height="18" rx="4" fill="#bfdbfe" stroke="#60a5fa" stroke-width="0.5"/>
  <rect x="30" y="78" width="35" height="18" rx="4" fill="#e2e8f0" stroke="#cbd5e1" stroke-width="0.5"/>
  <rect x="83" y="55" width="35" height="18" rx="4" fill="#fde68a" stroke="#f59e0b" stroke-width="0.5"/>
  <rect x="135" y="55" width="35" height="18" rx="4" fill="#bbf7d0" stroke="#22c55e" stroke-width="0.5"/>
  <path d="M67 65 L80 65" stroke="#94a3b8" stroke-width="1.5" stroke-dasharray="3 2"/>
  <path d="M120 65 L133 65" stroke="#94a3b8" stroke-width="1.5" stroke-dasharray="3 2"/>
  <text x="100" y="140" text-anchor="middle" font-size="10" fill="#94a3b8" font-family="sans-serif">Pipeline vazio</text>
</svg>
